<svg width="33" height="32" viewBox="0 0 33 32" fill="none" xmlns="http://www.w3.org/2000/svg">
<path fill-rule="evenodd" clip-rule="evenodd" d="M1.50009 12C1.35046 12.0001 1.20275 12.0337 1.06784 12.0984C0.93294 12.1632 0.814284 12.2574 0.720622 12.3741C0.626959 12.4907 0.560679 12.627 0.526666 12.7727C0.492653 12.9184 0.491774 13.0699 0.524095 13.216L3.82809 28.084C4.07472 29.1945 4.69264 30.1877 5.57986 30.8997C6.46707 31.6116 7.57054 31.9998 8.7081 32H20.2921C21.4297 31.9998 22.5331 31.6116 23.4203 30.8997C24.3076 30.1877 24.9255 29.1945 25.1721 28.084L25.4341 26.904C26.9639 27.1901 28.5451 26.8706 29.8438 26.0129C31.1425 25.1552 32.0571 23.8264 32.3945 22.307C32.7319 20.7876 32.4657 19.1966 31.6521 17.8698C30.8386 16.543 29.5413 15.5843 28.0341 15.196L28.4761 13.216C28.5084 13.0699 28.5075 12.9184 28.4735 12.7727C28.4395 12.627 28.3732 12.4907 28.2796 12.3741C28.1859 12.2574 28.0673 12.1632 27.9323 12.0984C27.7974 12.0337 27.6497 12.0001 27.5001 12H1.50009ZM26.5001 25C26.2884 25.0001 26.0771 24.9834 25.8681 24.95L27.6021 17.154C28.5271 17.4219 29.3245 18.0144 29.8479 18.8227C30.3714 19.631 30.5858 20.601 30.4518 21.5546C30.3179 22.5083 29.8446 23.3817 29.1187 24.0145C28.3928 24.6474 27.4631 24.9973 26.5001 25ZM5.7801 27.65L2.74609 14H26.2541L23.2201 27.65C23.0722 28.3164 22.7015 28.9124 22.1691 29.3396C21.6368 29.7669 20.9747 29.9998 20.2921 30H8.7081C8.02551 29.9998 7.36338 29.7669 6.83105 29.3396C6.29871 28.9124 5.92799 28.3164 5.7801 27.65Z" fill="#101828"/>
<path d="M9.3 1.6L9.294 1.608L9.266 1.646C9.12048 1.84624 8.98433 2.05313 8.858 2.266C8.75068 2.43664 8.65641 2.61515 8.576 2.8C8.524 2.92 8.508 2.984 8.502 3.006V3.014C8.52506 3.1908 8.58724 3.36024 8.684 3.51C8.834 3.776 9.04 4.054 9.3 4.4L9.32 4.424C9.556 4.74 9.84 5.118 10.06 5.51C10.284 5.91 10.5 6.42 10.5 7C10.5 7.376 10.37 7.736 10.262 7.988C10.1464 8.25615 10.0114 8.51551 9.858 8.764C9.7011 9.02626 9.53225 9.2812 9.352 9.528L9.316 9.578L9.306 9.594L9.302 9.598C9.14314 9.81044 8.90639 9.95106 8.64384 9.98895C8.38129 10.0268 8.11444 9.95886 7.902 9.8C7.68956 9.64113 7.54893 9.40438 7.51105 9.14183C7.47317 8.87928 7.54114 8.61244 7.7 8.4L7.706 8.392L7.734 8.354C7.87952 8.15375 8.01567 7.94687 8.142 7.734C8.24932 7.56336 8.34359 7.38485 8.424 7.2C8.476 7.08 8.492 7.016 8.498 6.994C8.47671 6.81459 8.41517 6.64231 8.318 6.49C8.13235 6.17971 7.92588 5.88236 7.7 5.6L7.68 5.576C7.40979 5.23062 7.16259 4.86783 6.94 4.49C6.66759 4.03945 6.51604 3.52625 6.5 3C6.5 2.624 6.63 2.264 6.738 2.012C6.856 1.736 7.006 1.464 7.142 1.236C7.30088 0.974982 7.46967 0.72013 7.648 0.471998L7.698 0.401998C7.85686 0.18956 8.09361 0.0489314 8.35616 0.0110491C8.61872 -0.0268333 8.88556 0.0411339 9.098 0.199999C9.31044 0.358863 9.45107 0.595612 9.48895 0.858163C9.52683 1.12071 9.45886 1.38756 9.3 1.6ZM15.3 1.6L15.294 1.608L15.266 1.646C15.1205 1.84624 14.9843 2.05313 14.858 2.266C14.7507 2.43664 14.6564 2.61515 14.576 2.8C14.524 2.92 14.508 2.984 14.502 3.006V3.014C14.5251 3.1908 14.5872 3.36024 14.684 3.51C14.834 3.776 15.04 4.054 15.3 4.4L15.32 4.424C15.556 4.74 15.84 5.118 16.06 5.51C16.284 5.91 16.5 6.42 16.5 7C16.5 7.376 16.37 7.736 16.262 7.988C16.1464 8.25615 16.0114 8.51551 15.858 8.764C15.7011 9.02626 15.5323 9.2812 15.352 9.528L15.316 9.578L15.306 9.594L15.302 9.598C15.1431 9.81044 14.9064 9.95106 14.6438 9.98895C14.3813 10.0268 14.1144 9.95886 13.902 9.8C13.6896 9.64113 13.5489 9.40438 13.5111 9.14183C13.4732 8.87928 13.5411 8.61244 13.7 8.4L13.706 8.392L13.734 8.354C13.8795 8.15375 14.0157 7.94687 14.142 7.734C14.2493 7.56336 14.3436 7.38485 14.424 7.2C14.476 7.08 14.492 7.016 14.498 6.994C14.4767 6.81459 14.4152 6.64231 14.318 6.49C14.1323 6.17971 13.9259 5.88236 13.7 5.6L13.68 5.576C13.4098 5.23062 13.1626 4.86783 12.94 4.49C12.6676 4.03945 12.516 3.52625 12.5 3C12.5 2.624 12.63 2.264 12.738 2.012C12.856 1.736 13.006 1.464 13.142 1.236C13.3009 0.974982 13.4697 0.72013 13.648 0.471998L13.698 0.401998C13.8569 0.18956 14.0936 0.0489314 14.3562 0.011049C14.6187 -0.0268333 14.8856 0.0411339 15.098 0.199999C15.3104 0.358863 15.4511 0.595612 15.4889 0.858163C15.5268 1.12071 15.4589 1.38756 15.3 1.6ZM21.3 1.6L21.294 1.608L21.266 1.646C21.1205 1.84624 20.9843 2.05313 20.858 2.266C20.7507 2.43664 20.6564 2.61515 20.576 2.8C20.524 2.92 20.508 2.984 20.502 3.006V3.014C20.5251 3.1908 20.5872 3.36024 20.684 3.51C20.834 3.776 21.04 4.054 21.3 4.4L21.32 4.424C21.556 4.74 21.84 5.118 22.06 5.51C22.284 5.91 22.5 6.42 22.5 7C22.5 7.376 22.37 7.736 22.262 7.988C22.1464 8.25615 22.0114 8.51551 21.858 8.764C21.7017 9.02622 21.5336 9.28116 21.354 9.528L21.316 9.578L21.306 9.594L21.302 9.598C21.1431 9.81044 20.9064 9.95106 20.6438 9.98895C20.3813 10.0268 20.1144 9.95886 19.902 9.8C19.6896 9.64113 19.5489 9.40438 19.5111 9.14183C19.4732 8.87928 19.5411 8.61244 19.7 8.4L19.706 8.392L19.734 8.354C19.8795 8.15375 20.0157 7.94687 20.142 7.734C20.2493 7.56336 20.3436 7.38485 20.424 7.2C20.476 7.08 20.492 7.016 20.498 6.994C20.4767 6.81459 20.4152 6.64231 20.318 6.49C20.1324 6.17971 19.9259 5.88236 19.7 5.6L19.68 5.576C19.4098 5.23062 19.1626 4.86783 18.94 4.49C18.6676 4.03945 18.516 3.52625 18.5 3C18.5 2.624 18.63 2.264 18.738 2.012C18.856 1.736 19.006 1.464 19.142 1.236C19.3009 0.974982 19.4697 0.72013 19.648 0.471998L19.698 0.401998C19.8569 0.18956 20.0936 0.0489314 20.3562 0.011049C20.6187 -0.0268333 20.8856 0.0411339 21.098 0.199999C21.3104 0.358863 21.4511 0.595612 21.4889 0.858163C21.5268 1.12071 21.4589 1.38756 21.3 1.6Z" fill="#101828"/>
</svg>
